<svg xmlns="http://www.w3.org/2000/svg" width="27.642" height="34.167" viewBox="0 0 27.642 34.167">
  <g id="adress" transform="translate(-48.886)">
    <path id="Tracé_73" data-name="Tracé 73" d="M62.707,34.167a1.194,1.194,0,0,1-.91-.421L51.763,21.959a10.866,10.866,0,0,1-2-3.306A13.8,13.8,0,0,1,51.367,5.941a13.8,13.8,0,0,1,22.681,0,13.8,13.8,0,0,1,1.6,12.72,10.874,10.874,0,0,1-2,3.3L63.617,33.746A1.194,1.194,0,0,1,62.707,34.167Zm0-31.777A11.244,11.244,0,0,0,53.332,7.3,11.413,11.413,0,0,0,52,17.816,8.527,8.527,0,0,0,53.576,20.4l9.131,10.725,9.125-10.718.006-.006a8.524,8.524,0,0,0,1.576-2.581A11.415,11.415,0,0,0,72.082,7.3,11.244,11.244,0,0,0,62.707,2.389Z" fill="#ababab"/>
    <path id="Tracé_74" data-name="Tracé 74" d="M162.444,119.6a6.69,6.69,0,1,1,6.69-6.69A6.7,6.7,0,0,1,162.444,119.6Zm0-10.991a4.3,4.3,0,1,0,4.3,4.3A4.306,4.306,0,0,0,162.444,108.608Z" transform="translate(-99.737 -99.131)" fill="#ababab"/>
  </g>
</svg>
