<svg id="computer" xmlns="http://www.w3.org/2000/svg" width="75.919" height="70.433" viewBox="0 0 75.919 70.433">
  <path id="Tracé_212" data-name="Tracé 212" d="M364.744,418.4l-12.476,4.448L351.8,424.5a6.258,6.258,0,0,1-5.67,4.278h24.763Zm0,0" transform="translate(-322.771 -359.46)" fill="#adaca7"/>
  <path id="Tracé_213" data-name="Tracé 213" d="M394.6,406.451l-1.744-6.1-7.192-4.448-7.192,4.448L377.2,404.8h12.476l.473,1.653a6.258,6.258,0,0,0,5.67,4.278h4.448a6.258,6.258,0,0,1-5.67-4.278Zm0,0" transform="translate(-347.701 -341.408)" fill="#8f8f8b"/>
  <path id="Tracé_214" data-name="Tracé 214" d="M561.375,328.143h4.448a4.462,4.462,0,0,0,4.448-4.448v-8.9l-8.9-8.9Zm0,0" transform="translate(-495.465 -269.202)" fill="#adaca7"/>
  <path id="Tracé_215" data-name="Tracé 215" d="M233.625,287.591a4.462,4.462,0,0,0,4.448,4.448h60.35a4.462,4.462,0,0,0,4.448-4.448V260.9l-69.247,17.794Zm0,0" transform="translate(-232.513 -233.098)" fill="#cbc9c2"/>
  <path id="Tracé_216" data-name="Tracé 216" d="M565.823,125.9h-4.448l4.448,44.484h4.448V130.349a4.462,4.462,0,0,0-4.448-4.448Zm0,0" transform="translate(-495.465 -124.789)" fill="#404242"/>
  <path id="Tracé_217" data-name="Tracé 217" d="M302.872,130.349a4.461,4.461,0,0,0-4.448-4.448h-60.35a4.461,4.461,0,0,0-4.448,4.448v40.036h69.247v-4.448l-32.4-17.8Zm0,0" transform="translate(-232.513 -124.789)" fill="#565959"/>
  <path id="Tracé_218" data-name="Tracé 218" d="M452.4,148.384l-4.448,0L420,166.177l27.951,17.8,4.448,0s0-35.584,0-35.585Zm0,0" transform="translate(-382.04 -142.824)" fill="#4b88d5"/>
  <path id="Tracé_219" data-name="Tracé 219" d="M316.475,148.384l-60.337,0s-.007,35.59-.013,35.591l60.348,0s0-35.584,0-35.585Zm0,0" transform="translate(-250.564 -142.824)" fill="#69a7ff"/>
  <path id="Tracé_220" data-name="Tracé 220" d="M413.2,375.625a2.224,2.224,0,1,1-2.224-2.224,2.224,2.224,0,0,1,2.224,2.224Zm0,0" transform="translate(-373.014 -323.356)" fill="#fff"/>
  <path id="Tracé_221" data-name="Tracé 221" d="M298.359,120.276h-64.8A5.567,5.567,0,0,0,228,125.837v48.932a5.567,5.567,0,0,0,5.561,5.561h23.733l-1.339,4.685a5.141,5.141,0,0,1-4.6,3.471h-8.378a1.112,1.112,0,1,0,0,2.224h45.967a1.112,1.112,0,1,0,0-2.224h-8.378a5.141,5.141,0,0,1-4.6-3.471l-1.339-4.685h23.733a5.567,5.567,0,0,0,5.561-5.561V125.837a5.567,5.567,0,0,0-5.561-5.561Zm-64.8,2.224h64.8a3.34,3.34,0,0,1,3.336,3.336V164.76H230.224V125.837a3.34,3.34,0,0,1,3.336-3.336Zm40.265,63.125a6.788,6.788,0,0,0,1.707,2.86H256.387a6.793,6.793,0,0,0,1.707-2.86l1.513-5.3h12.706Zm24.533-7.52h-64.8a3.34,3.34,0,0,1-3.336-3.336v-7.785H301.7v7.785a3.34,3.34,0,0,1-3.336,3.336Zm0,0" transform="translate(-228 -120.276)"/>
  <path id="Tracé_222" data-name="Tracé 222" d="M251.612,180.587h64.8a1.113,1.113,0,0,0,1.112-1.112V143.888a1.113,1.113,0,0,0-1.112-1.112h-64.8a1.113,1.113,0,0,0-1.112,1.112v15.569a1.112,1.112,0,0,0,2.224,0V145H315.3v33.363H252.724V163.906a1.112,1.112,0,1,0-2.224,0v15.569a1.113,1.113,0,0,0,1.112,1.112Zm0,0" transform="translate(-246.052 -138.327)"/>
  <path id="Tracé_223" data-name="Tracé 223" d="M406.461,367.776a3.336,3.336,0,1,0,3.336,3.336,3.34,3.34,0,0,0-3.336-3.336Zm0,4.448a1.112,1.112,0,1,1,1.112-1.112,1.113,1.113,0,0,1-1.112,1.112Zm0,0" transform="translate(-368.502 -318.843)"/>
</svg>
