<svg xmlns="http://www.w3.org/2000/svg" xmlns:xlink="http://www.w3.org/1999/xlink" width="27" height="28" viewBox="0 0 27 28">
  <defs>
    <clipPath id="clip-path">
      <rect id="Rectangle_238" data-name="Rectangle 238" width="27" height="28" transform="translate(-0.079 -0.163)" fill="#fff"/>
    </clipPath>
  </defs>
  <g id="instagram" transform="translate(0.079 0.163)">
    <g id="Groupe_135" data-name="Groupe 135" transform="translate(0 0)">
      <g id="Groupe_134" data-name="Groupe 134" transform="translate(0 0)" clip-path="url(#clip-path)">
        <path id="Tracé_164" data-name="Tracé 164" d="M-78.781-37.418a10,10,0,0,0-.637-3.324A6.684,6.684,0,0,0-81-43.171a6.741,6.741,0,0,0-2.424-1.579,10.04,10.04,0,0,0-3.323-.637c-1.467-.07-1.932-.086-5.651-.086s-4.185.016-5.646.08a10.016,10.016,0,0,0-3.323.637,6.687,6.687,0,0,0-2.43,1.584,6.745,6.745,0,0,0-1.579,2.424,10.042,10.042,0,0,0-.637,3.323c-.07,1.467-.086,1.932-.086,5.652s.016,4.185.08,5.646a10.011,10.011,0,0,0,.637,3.324,6.755,6.755,0,0,0,1.584,2.43,6.745,6.745,0,0,0,2.424,1.579,10.036,10.036,0,0,0,3.324.637c1.461.064,1.927.08,5.646.08s4.185-.016,5.646-.08a10.006,10.006,0,0,0,3.323-.637A7.007,7.007,0,0,0-79.429-22.8a10.036,10.036,0,0,0,.637-3.324c.064-1.461.08-1.927.08-5.646s-.005-4.185-.07-5.646Zm-2.467,11.185a7.514,7.514,0,0,1-.471,2.542,4.544,4.544,0,0,1-2.6,2.6,7.542,7.542,0,0,1-2.542.471c-1.445.064-1.878.08-5.534.08s-4.094-.016-5.534-.08a7.511,7.511,0,0,1-2.542-.471,4.214,4.214,0,0,1-1.573-1.022,4.261,4.261,0,0,1-1.022-1.573,7.542,7.542,0,0,1-.471-2.542c-.064-1.445-.08-1.879-.08-5.534s.016-4.094.08-5.534a7.509,7.509,0,0,1,.471-2.542,4.164,4.164,0,0,1,1.028-1.574,4.254,4.254,0,0,1,1.573-1.022,7.547,7.547,0,0,1,2.542-.471c1.445-.064,1.879-.08,5.534-.08s4.094.016,5.534.08a7.515,7.515,0,0,1,2.542.471,4.214,4.214,0,0,1,1.573,1.022,4.256,4.256,0,0,1,1.022,1.574,7.543,7.543,0,0,1,.471,2.542c.064,1.445.08,1.878.08,5.534s-.016,4.083-.08,5.528Zm0,0" transform="translate(106.15 45.472)" fill="#fff"/>
      </g>
    </g>
    <path id="Tracé_165" data-name="Tracé 165" d="M25.218,78.809a7.038,7.038,0,1,0,7.037,7.038,7.039,7.039,0,0,0-7.037-7.038Zm0,11.6a4.565,4.565,0,1,1,4.565-4.565,4.566,4.566,0,0,1-4.565,4.565Zm0,0" transform="translate(-11.469 -72.146)" fill="#fff"/>
    <path id="Tracé_166" data-name="Tracé 166" d="M258.548,44.616a1.643,1.643,0,1,1-1.643-1.643,1.643,1.643,0,0,1,1.643,1.643Zm0,0" transform="translate(-235.84 -38.231)" fill="#fff"/>
  </g>
</svg>
