<svg id="language" xmlns="http://www.w3.org/2000/svg" width="85.216" height="85.215" viewBox="0 0 85.216 85.215">
  <path id="Tracé_201" data-name="Tracé 201" d="M362,253.92v15.971a5.325,5.325,0,0,0,5.325,5.326h24.134l10.985,8.988v-8.988h4.827a5.326,5.326,0,0,0,5.326-5.326V237.6a5.326,5.326,0,0,0-5.326-5.326H382.312Zm0,0" transform="translate(-329.046 -200.653)" fill="#91def5"/>
  <path id="Tracé_202" data-name="Tracé 202" d="M199.8,52.276a25.8,25.8,0,0,0-20.871,40.97l-3.18,6.988,7.871-2.058v0a25.8,25.8,0,1,0,16.18-45.9Zm0,0" transform="translate(-172.336 -50.612)" fill="#ffcb7c"/>
  <path id="Tracé_203" data-name="Tracé 203" d="M242.225,72.235H218.817c.074-.821.115-1.653.115-2.493a27.472,27.472,0,0,0-41.189-23.8,1.664,1.664,0,1,0,1.666,2.882,24.139,24.139,0,1,1,12.058,45.051,23.867,23.867,0,0,1-15.135-5.337,1.666,1.666,0,0,0-1.534-.294L170.379,89.4l1.731-3.8a1.664,1.664,0,0,0-.169-1.669,24.15,24.15,0,0,1-1.372-26.276,1.665,1.665,0,1,0-2.88-1.67,27.484,27.484,0,0,0,1,29.1L165.9,91.209a1.664,1.664,0,0,0,1.935,2.3l7.078-1.85a27.46,27.46,0,0,0,20.378,5.281v14.574a7,7,0,0,0,6.99,6.99h23.54l10.525,8.611a1.664,1.664,0,0,0,2.718-1.289V118.5h3.162a7,7,0,0,0,6.99-6.99V79.225a7,7,0,0,0-6.99-6.99Zm3.662,39.279a3.666,3.666,0,0,1-3.662,3.662H237.4a1.664,1.664,0,0,0-1.664,1.664v5.475l-8.22-6.726c-.453-.413-.85-.413-1.741-.413H202.28a3.666,3.666,0,0,1-3.661-3.662V96.26a27.558,27.558,0,0,0,19.689-20.7h23.917a3.665,3.665,0,0,1,3.662,3.662Zm0,0" transform="translate(-164 -42.276)"/>
  <path id="Tracé_204" data-name="Tracé 204" d="M470.089,308.756a1.663,1.663,0,0,0-.709-3.169H468.7l-5.368-12.233a1.664,1.664,0,0,0-3.048,0l-5.368,12.233h-.681a1.663,1.663,0,0,0-.709,3.169l-2,4.556a1.664,1.664,0,1,0,3.048,1.337l2.516-5.734h9.434l2.516,5.734a1.664,1.664,0,1,0,3.048-1.337Zm-11.539-3.169,3.257-7.422,3.256,7.422Zm0,0" transform="translate(-403.554 -250.735)"/>
  <path id="Tracé_205" data-name="Tracé 205" d="M211.066,91a1.665,1.665,0,1,0-1.177-.487,1.679,1.679,0,0,0,1.177.487Zm0,0" transform="translate(-201.845 -80.118)"/>
  <path id="Tracé_206" data-name="Tracé 206" d="M265,151.053a1.665,1.665,0,1,0,1.6,2.919,19.061,19.061,0,0,0,8.237-8.936,19.063,19.063,0,0,0,8.237,8.936,1.665,1.665,0,1,0,1.6-2.919,15.74,15.74,0,0,1-8-11.453h7.389a1.664,1.664,0,1,0,0-3.329H276.5v-6.936a1.664,1.664,0,1,0-3.329,0v6.936h-6.013a1.664,1.664,0,0,0,0,3.329h5.834a15.739,15.739,0,0,1-8,11.453Zm0,0" transform="translate(-247.467 -113.458)"/>
</svg>
