<svg id="linkdin" xmlns="http://www.w3.org/2000/svg" width="21.856" height="21.856" viewBox="0 0 21.856 21.856">
  <path id="Tracé_160" data-name="Tracé 160" d="M105.944,154.671h.006v-8.016c0-3.921-.844-6.942-5.429-6.942a4.76,4.76,0,0,0-4.287,2.356h-.064v-1.99H91.824V154.67H96.35v-7.225c0-1.9.361-3.742,2.716-3.742,2.321,0,2.356,2.171,2.356,3.864v7.1Zm0,0" transform="translate(-84.093 -132.814)" fill="#fff"/>
  <rect id="Rectangle_236" data-name="Rectangle 236" width="4.532" height="14.592" transform="translate(0.361 7.265)" fill="#fff"/>
  <path id="Tracé_161" data-name="Tracé 161" d="M-41.375,18.528A2.625,2.625,0,0,0-44,21.153,2.647,2.647,0,0,0-41.375,23.8a2.647,2.647,0,0,0,2.624-2.649,2.627,2.627,0,0,0-2.624-2.625Zm0,0" transform="translate(44 -18.528)" fill="#fff"/>
</svg>
