<svg xmlns="http://www.w3.org/2000/svg" xmlns:xlink="http://www.w3.org/1999/xlink" width="288.26" height="58.111" viewBox="0 0 288.26 58.111">
  <defs>
    <linearGradient id="linear-gradient" x1="1.731" y1="4.01" x2="0.376" y2="0.044" gradientUnits="objectBoundingBox">
      <stop offset="0.02" stop-color="#fab521"/>
      <stop offset="0.522" stop-color="#642aa1"/>
      <stop offset="1" stop-color="#fa2a6c"/>
    </linearGradient>
    <linearGradient id="linear-gradient-2" x1="2.83" y1="1.782" x2="-0.357" y2="-0.148" xlink:href="#linear-gradient"/>
    <linearGradient id="linear-gradient-3" x1="1.502" y1="1.209" x2="0.148" y2="-0.024" xlink:href="#linear-gradient"/>
  </defs>
  <g id="logo_profgate" data-name="logo profgate" transform="translate(-693.296 -156.743)">
    <g id="Groupe_142" data-name="Groupe 142" transform="translate(693.296 156.743)">
      <path id="Tracé_173" data-name="Tracé 173" d="M651.2,150.134h11.464A6.984,6.984,0,0,1,668,152.308c2.372,2.471,4.707,4.843,4.707,4.843l5.077-4.941a7.106,7.106,0,0,1,5.237-2.086h10.97s-.3-7.4-7.808-7.4H659.8S651.2,142.326,651.2,150.134Z" transform="translate(-651.166 -142.719)" fill="url(#linear-gradient)"/>
      <path id="Tracé_174" data-name="Tracé 174" d="M660.462,154.108v18.974a6.135,6.135,0,0,0,2.569,5.435,72.643,72.643,0,0,1,6.374,5.238l6.869-5.436a6.082,6.082,0,0,0,2.372-4.941v-19.27l-9.24,8.993Z" transform="translate(-647.974 -138.787)" fill="url(#linear-gradient-2)"/>
      <path id="Tracé_175" data-name="Tracé 175" d="M655.855,151.39H651.21v20.159a15.564,15.564,0,0,0,4.052,11.464c4.743,4.941,17.484,14.823,17.484,14.823L689.06,184.3S694,179.653,694,170.858V151.39H689.6v21.444a13.139,13.139,0,0,1-4.727,9.092l-12.123,10.08-12.839-10.575a13.165,13.165,0,0,1-3.854-8.893Z" transform="translate(-651.175 -139.725)" fill="url(#linear-gradient-3)"/>
    </g>
    <g id="Groupe_143" data-name="Groupe 143" transform="translate(751.634 170.767)">
      <path id="Tracé_176" data-name="Tracé 176" d="M632.209,203.117c0,6.187-4.484,9.923-11.877,9.923h-7.8v9.177h-3.073V193.149h10.878C627.726,193.149,632.209,196.885,632.209,203.117Zm-3.071,0c0-4.653-3.074-7.312-8.888-7.312h-7.723v14.536h7.723C626.064,210.342,629.138,207.685,629.138,203.117Z" transform="translate(-609.454 -192.652)" fill="#3c414c"/>
      <path id="Tracé_177" data-name="Tracé 177" d="M644.052,222.217l-6.644-9.342a21,21,0,0,1-2.326.126h-7.807v9.217H624.2V193.149h10.88c7.392,0,11.875,3.736,11.875,9.969a9.011,9.011,0,0,1-6.644,9.135l7.1,9.965Zm-.166-19.1c0-4.653-3.074-7.312-8.888-7.312h-7.723v14.578H635C640.813,210.383,643.887,207.685,643.887,203.117Z" transform="translate(-594.786 -192.652)" fill="#3c414c"/>
      <path id="Tracé_178" data-name="Tracé 178" d="M637.973,207.81c0-8.475,6.478-14.787,15.282-14.787,8.72,0,15.242,6.273,15.242,14.787s-6.522,14.783-15.242,14.783C644.451,222.593,637.973,216.281,637.973,207.81Zm27.45,0a11.778,11.778,0,0,0-12.168-12.045c-7.017,0-12.25,5.11-12.25,12.045s5.234,12.041,12.25,12.041A11.775,11.775,0,0,0,665.423,207.81Z" transform="translate(-581.092 -192.778)" fill="#3c414c"/>
      <path id="Tracé_179" data-name="Tracé 179" d="M659.815,195.806v11.418h15.033v2.659H659.815v12.334h-3.073V193.149h19.933v2.657Z" transform="translate(-562.426 -192.652)" fill="#3c414c"/>
      <path id="Tracé_180" data-name="Tracé 180" d="M689.836,207.472h6.147v11.8a20.056,20.056,0,0,1-11.752,3.7c-9.137,0-15.864-6.271-15.864-15.031s6.727-15.033,15.986-15.033c5.11,0,9.344,1.741,12.168,5.024l-4.318,3.987a9.844,9.844,0,0,0-7.517-3.285c-5.648,0-9.51,3.782-9.51,9.306,0,5.437,3.861,9.3,9.428,9.3a10.678,10.678,0,0,0,5.232-1.249Z" transform="translate(-550.865 -192.9)" fill="#3c414c"/>
      <path id="Tracé_181" data-name="Tracé 181" d="M706.393,215.99H692.9l-2.575,6.227h-6.893l12.956-29.068h6.644l13,29.068h-7.058Zm-2.118-5.11-4.609-11.127-4.611,11.127Z" transform="translate(-535.886 -192.652)" fill="#3c414c"/>
      <path id="Tracé_182" data-name="Tracé 182" d="M708.23,198.63h-9.3v-5.481H724.26v5.481h-9.3v23.587H708.23Z" transform="translate(-520.472 -192.652)" fill="#3c414c"/>
      <path id="Tracé_183" data-name="Tracé 183" d="M735.955,216.818v5.4H713.447V193.149h21.967v5.4H720.133v6.315h13.5v5.234h-13.5v6.725Z" transform="translate(-506.033 -192.652)" fill="#3c414c"/>
    </g>
  </g>
</svg>
