<svg xmlns="http://www.w3.org/2000/svg" width="27.503" height="19.338" viewBox="0 0 27.503 19.338">
  <path id="mail_blanc" data-name="mail blanc" d="M27.5,78.417A2.42,2.42,0,0,0,25.086,76H2.417A2.421,2.421,0,0,0,0,78.417v14.5a2.421,2.421,0,0,0,2.417,2.417H25.086A2.42,2.42,0,0,0,27.5,92.921Zm-25.892.329,6.964,6.927-6.964,6.92Zm13.849,8.1a2.417,2.417,0,0,1-3.42,0L2.756,77.612H24.747ZM9.718,86.81,10.9,87.989a4.029,4.029,0,0,0,5.7,0l1.186-1.18,6.961,6.917H2.757Zm9.21-1.136,6.964-6.927V92.593Z" transform="translate(0 -76)" fill="#fff"/>
</svg>
