<svg xmlns="http://www.w3.org/2000/svg" xmlns:xlink="http://www.w3.org/1999/xlink" width="75.145" height="85.96" viewBox="0 0 75.145 85.96">
  <defs>
    <clipPath id="clip-path">
      <rect id="Rectangle_260" data-name="Rectangle 260" width="75.051" height="85.96" fill="none"/>
    </clipPath>
  </defs>
  <g id="music" transform="translate(0)">
    <path id="Tracé_207" data-name="Tracé 207" d="M343.407,210.036l.006,32.432c-.858-1.124-3.018-1.774-5.33-1.773a12.1,12.1,0,1,0,12.106,12.1l-.005-28.613,25.923-5.573,0,12.816c-.857-1.124-3.018-1.773-5.331-1.773a12.1,12.1,0,1,0,12.107,12.1l-.007-39.69Zm0,0" transform="translate(-309.419 -180.622)" fill="#ff9c9b"/>
    <path id="Tracé_208" data-name="Tracé 208" d="M276.463,138.3v7.994c-.822-1.077-2.839-1.7-5.055-1.7a11.6,11.6,0,1,0,11.6,11.595L283,127.618l11.991,7.147c0-.15,0-.3,0-.45a20.77,20.77,0,0,0-14.456-19.24l-4.07-1.3v9.343" transform="translate(-258.063 -112.097)" fill="#eaaacb"/>
    <g id="Groupe_156" data-name="Groupe 156" transform="translate(0 0)">
      <g id="Groupe_155" data-name="Groupe 155" transform="translate(0 0)" clip-path="url(#clip-path)">
        <path id="Tracé_209" data-name="Tracé 209" d="M328.383,185.155a1.678,1.678,0,1,1,1.648-1.35,1.691,1.691,0,0,1-1.648,1.35Zm0,0" transform="translate(-309.985 -164.895)"/>
        <path id="Tracé_210" data-name="Tracé 210" d="M265.588,163.646a13.276,13.276,0,0,1,0-26.552h0a11.62,11.62,0,0,1,3.372.466v-5.082a1.679,1.679,0,1,1,3.358,0v7.994a1.678,1.678,0,0,1-3.013,1.018c-.384-.5-1.817-1.038-3.716-1.038h0a9.918,9.918,0,0,0,0,19.836h0a9.916,9.916,0,0,0,9.917-9.919l0-28.57a1.679,1.679,0,0,1,2.538-1.443l9.2,5.482A19.134,19.134,0,0,0,274.2,110.853l-1.875-.6V117.3a1.679,1.679,0,1,1-3.358,0v-9.343a1.68,1.68,0,0,1,2.19-1.6l4.069,1.3a22.433,22.433,0,0,1,15.624,20.8c0,.16,0,.322,0,.484a1.679,1.679,0,0,1-2.539,1.442l-9.452-5.633,0,25.616a13.275,13.275,0,0,1-13.274,13.277Zm0,0" transform="translate(-252.242 -106.276)"/>
      </g>
    </g>
    <path id="Tracé_211" data-name="Tracé 211" d="M332.262,260.761a13.783,13.783,0,0,1,0-27.566h.005a12.209,12.209,0,0,1,3.646.518l-.005-29.5a1.678,1.678,0,0,1,1.347-1.646l39.47-7.97a1.678,1.678,0,0,1,2.011,1.646l.007,39.69a13.8,13.8,0,0,1-13.78,13.786h0a13.784,13.784,0,0,1,0-27.567,12.246,12.246,0,0,1,3.652.518l0-7.8-22.566,4.851.005,27.257a13.782,13.782,0,0,1-13.781,13.785Zm0-24.209h0a10.425,10.425,0,0,0,0,20.851h0a10.426,10.426,0,0,0,10.424-10.427l-.005-28.614a1.68,1.68,0,0,1,1.326-1.642l25.923-5.573a1.68,1.68,0,0,1,2.032,1.641l0,12.817a1.679,1.679,0,0,1-3.013,1.019c-.412-.539-1.952-1.113-4-1.113a10.426,10.426,0,0,0,0,20.852h0a10.438,10.438,0,0,0,10.423-10.428l-.006-37.639-36.113,7.293.006,31.058a1.679,1.679,0,0,1-3.014,1.019c-.412-.54-1.95-1.113-3.992-1.113Zm0,0" transform="translate(-303.598 -174.801)"/>
  </g>
</svg>
