<svg xmlns="http://www.w3.org/2000/svg" xmlns:xlink="http://www.w3.org/1999/xlink" width="25.252" height="25.38" viewBox="0 0 25.252 25.38">
  <defs>
    <clipPath id="clip-path">
      <rect id="Rectangle_15" data-name="Rectangle 15" width="25.252" height="25.38" fill="#fff"/>
    </clipPath>
  </defs>
  <g id="phone_blanc" data-name="phone blanc" transform="translate(-125 -257.89)">
    <g id="Groupe_13" data-name="Groupe 13" transform="translate(125 257.89)">
      <g id="Groupe_12" data-name="Groupe 12" clip-path="url(#clip-path)">
        <path id="Tracé_4" data-name="Tracé 4" d="M144.943,294.876a2.485,2.485,0,0,0-1.8-.826,2.568,2.568,0,0,0-1.823.821l-1.685,1.679c-.139-.075-.277-.144-.41-.213-.192-.1-.373-.187-.528-.283a18.31,18.31,0,0,1-4.387-4,10.807,10.807,0,0,1-1.439-2.271c.437-.4.842-.816,1.237-1.216.149-.149.3-.3.448-.453a2.446,2.446,0,0,0,0-3.689l-1.456-1.455c-.165-.165-.336-.336-.5-.506-.32-.331-.656-.672-1-.992a2.524,2.524,0,0,0-1.786-.783,2.611,2.611,0,0,0-1.812.783l-.011.011-1.813,1.829a3.9,3.9,0,0,0-1.157,2.479,9.345,9.345,0,0,0,.682,3.955,22.954,22.954,0,0,0,4.078,6.8,25.086,25.086,0,0,0,8.353,6.541,13.013,13.013,0,0,0,4.691,1.386c.112.005.229.011.336.011a4.016,4.016,0,0,0,3.076-1.322c.005-.011.016-.016.021-.027a12.09,12.09,0,0,1,.933-.965c.229-.219.464-.448.693-.688a2.658,2.658,0,0,0,.8-1.844,2.563,2.563,0,0,0-.821-1.829Zm1.909,5.613c-.005,0-.005.005,0,0-.208.224-.421.427-.65.651a14.021,14.021,0,0,0-1.029,1.066,2.57,2.57,0,0,1-2,.848c-.08,0-.165,0-.245-.005a11.564,11.564,0,0,1-4.158-1.247,23.683,23.683,0,0,1-7.868-6.163,21.644,21.644,0,0,1-3.838-6.392,7.609,7.609,0,0,1-.6-3.337,2.447,2.447,0,0,1,.736-1.583l1.818-1.818a1.211,1.211,0,0,1,.81-.378,1.142,1.142,0,0,1,.778.373l.016.016c.325.3.634.618.96.954.165.171.336.341.506.517l1.455,1.455a1.017,1.017,0,0,1,0,1.653c-.155.155-.3.309-.458.458-.448.458-.874.885-1.338,1.3-.011.011-.021.016-.027.027a1.088,1.088,0,0,0-.277,1.21l.016.048a11.686,11.686,0,0,0,1.722,2.809l.005.005a19.567,19.567,0,0,0,4.734,4.307,7.187,7.187,0,0,0,.656.357c.192.1.373.187.528.283.021.011.043.027.064.037a1.156,1.156,0,0,0,.528.133,1.14,1.14,0,0,0,.81-.368l1.823-1.823a1.206,1.206,0,0,1,.805-.4,1.085,1.085,0,0,1,.768.389l2.948,2.948a1.054,1.054,0,0,1,.005,1.668Zm0,0" transform="translate(-124.999 -279.172)" fill="#fff"/>
        <path id="Tracé_5" data-name="Tracé 5" d="M321.271,328.932a6.861,6.861,0,0,1,5.587,5.587.715.715,0,0,0,.709.6.976.976,0,0,0,.123-.011.72.72,0,0,0,.592-.832,8.3,8.3,0,0,0-6.76-6.76.724.724,0,0,0-.832.586.712.712,0,0,0,.581.832Zm0,0" transform="translate(-307.639 -322.865)" fill="#fff"/>
        <path id="Tracé_6" data-name="Tracé 6" d="M335.713,269.906a13.66,13.66,0,0,0-11.131-11.131.719.719,0,1,0-.234,1.418,12.2,12.2,0,0,1,9.947,9.947.715.715,0,0,0,.709.6.929.929,0,0,0,.122-.011.706.706,0,0,0,.586-.821Zm0,0" transform="translate(-310.503 -258.706)" fill="#fff"/>
      </g>
    </g>
  </g>
</svg>
