<svg xmlns="http://www.w3.org/2000/svg" width="24.171" height="29.876" viewBox="0 0 24.171 29.876">
  <g id="place_blanc" data-name="place blanc" transform="translate(-48.886)">
    <path id="Tracé_8" data-name="Tracé 8" d="M60.971,29.876a1.044,1.044,0,0,1-.8-.368L51.4,19.2A9.5,9.5,0,0,1,49.65,16.31a12.065,12.065,0,0,1,1.4-11.116,12.063,12.063,0,0,1,19.833,0,12.067,12.067,0,0,1,1.4,11.122A9.509,9.509,0,0,1,70.539,19.2l-8.772,10.3A1.044,1.044,0,0,1,60.971,29.876Zm0-27.786a9.832,9.832,0,0,0-8.2,4.293,9.979,9.979,0,0,0-1.166,9.2,7.457,7.457,0,0,0,1.38,2.264l7.984,9.378,7.979-9.372,0-.006a7.454,7.454,0,0,0,1.378-2.257,9.981,9.981,0,0,0-1.164-9.2A9.832,9.832,0,0,0,60.971,2.089Z" fill="#fff"/>
    <path id="Tracé_9" data-name="Tracé 9" d="M161.6,117.919a5.85,5.85,0,1,1,5.85-5.85A5.856,5.856,0,0,1,161.6,117.919Zm0-9.61a3.761,3.761,0,1,0,3.761,3.761A3.765,3.765,0,0,0,161.6,108.308Z" transform="translate(-100.632 -100.021)" fill="#fff"/>
  </g>
</svg>
