<svg id="search_2" data-name="search 2" xmlns="http://www.w3.org/2000/svg" width="51.5" height="51.5" viewBox="0 0 51.5 51.5">
  <path id="Tracé_224" data-name="Tracé 224" d="M22.68,45.359a22.68,22.68,0,1,1,22.68-22.68A22.705,22.705,0,0,1,22.68,45.359Zm0-41.172A18.493,18.493,0,1,0,41.172,22.68,18.514,18.514,0,0,0,22.68,4.187Z"/>
  <path id="Tracé_225" data-name="Tracé 225" d="M365.142,367.235a2.086,2.086,0,0,1-1.48-.613l-12-12a2.093,2.093,0,0,1,2.96-2.96l12,12a2.093,2.093,0,0,1-1.48,3.574Z" transform="translate(-315.735 -315.735)"/>
</svg>
