<svg id="SEARCH" xmlns="http://www.w3.org/2000/svg" width="32" height="32" viewBox="0 0 32 32">
  <path id="Tracé_71" data-name="Tracé 71" d="M14.092,28.184A14.092,14.092,0,1,1,28.184,14.092,14.108,14.108,0,0,1,14.092,28.184Zm0-25.583a11.49,11.49,0,1,0,11.49,11.49A11.5,11.5,0,0,0,14.092,2.6Z" fill="#c1c1c1"/>
  <path id="Tracé_72" data-name="Tracé 72" d="M359.8,361.105a1.3,1.3,0,0,1-.92-.381l-7.458-7.458a1.3,1.3,0,0,1,1.839-1.839l7.458,7.458a1.3,1.3,0,0,1-.92,2.22Z" transform="translate(-329.105 -329.105)" fill="#c1c1c1"/>
</svg>
