<svg xmlns="http://www.w3.org/2000/svg" width="25.439" height="20.669" viewBox="0 0 25.439 20.669">
  <path id="twitter" d="M25.439,66.447a10.873,10.873,0,0,1-3,.824,5.186,5.186,0,0,0,2.294-2.883,10.422,10.422,0,0,1-3.307,1.262A5.215,5.215,0,0,0,12.4,69.217a5.37,5.37,0,0,0,.121,1.189,14.762,14.762,0,0,1-10.75-5.455,5.217,5.217,0,0,0,1.6,6.97,5.15,5.15,0,0,1-2.356-.642v.057A5.239,5.239,0,0,0,5.2,76.46a5.205,5.205,0,0,1-1.367.172,4.611,4.611,0,0,1-.987-.089,5.265,5.265,0,0,0,4.873,3.633A10.479,10.479,0,0,1,1.248,82.4,9.77,9.77,0,0,1,0,82.329a14.682,14.682,0,0,0,8,2.34,14.741,14.741,0,0,0,14.844-14.84c0-.231-.008-.453-.019-.674A10.4,10.4,0,0,0,25.439,66.447Z" transform="translate(0 -64)" fill="#fff"/>
</svg>
